# xmcd
#
# Track frame offsets: 
#        150
#        14560
#        29847
#        44249
#        68670
#        93578
#        110217
#        142798
#        162099
#        189764
#        211569
#        237037
#        257180
#        281390
#        304855
#        323666
#
# Disc length: 4565 seconds
#
# Revision: 0
# Processed by: cddbd v1.5.2PL0 Copyright (c) Steve Scherf et al.
# Submitted via: ExactAudioCopy v1.0b3
#
DISCID=de11d310
DTITLE=群星 - 试音宝典08号
DYEAR=2010
DGENRE=stereo
TTITLE0=斯特劳伦斯圆舞曲Ⅱ母盘直刻音效注意音量
TTITLE1=孤独的牧羊人（人声）大提琴与弦乐结合人声动态十足
TTITLE2=你怎么说 古筝二胡与弦乐合奏低频通透
TTITLE3=星（人声）醇厚的人声，人声测试一流
TTITLE4=睡美人小夜曲 弦乐五重奏融入大自然的声音
TTITLE5=深情相拥（人声）完美的男女声结合音色优美
TTITLE6=喜多郎之古事记 低频测试注意音量
TTITLE7=昨夜星辰（人声）清纯的声音，场感音效首选
TTITLE8=千古绝响之行云流水 古诗般的古琴演绎音频通透
TTITLE9=水中花（人声）通透音场感与人声结合试音首选
TTITLE10=十面埋伏 新民乐演绎动态音效
TTITLE11=盛夏的果实（人声）纯厚男声，音场通透
TTITLE12=为了谁 轻音乐与古筝演绎音色完美
TTITLE13=月满西楼（人声）磁性女声演绎，定位一流
TTITLE14=木村好夫之海峡 木吉他演奏与电子乐合奏场感通透
TTITLE15=边疆的泉水清又纯（人声）大自然滴水与人声结合
EXTD=
EXTT0=
EXTT1=
EXTT2=
EXTT3=
EXTT4=
EXTT5=
EXTT6=
EXTT7=
EXTT8=
EXTT9=
EXTT10=
EXTT11=
EXTT12=
EXTT13=
EXTT14=
EXTT15=
PLAYORDER=
